<?xml version="1.0" encoding="UTF-8" standalone="no"?>
<!-- Created with Inkscape (http://www.inkscape.org/) -->

<svg
   xmlns:dc="http://purl.org/dc/elements/1.1/"
   xmlns:cc="http://creativecommons.org/ns#"
   xmlns:rdf="http://www.w3.org/1999/02/22-rdf-syntax-ns#"
   xmlns:svg="http://www.w3.org/2000/svg"
   xmlns="http://www.w3.org/2000/svg"
   xmlns:xlink="http://www.w3.org/1999/xlink"
   xmlns:sodipodi="http://sodipodi.sourceforge.net/DTD/sodipodi-0.dtd"
   xmlns:inkscape="http://www.inkscape.org/namespaces/inkscape"
   width="297mm"
   height="210mm"
   viewBox="0 0 297 210"
   version="1.1"
   id="svg8"
   inkscape:version="0.92.4 (5da689c313, 2019-01-14)"
   sodipodi:docname="logo2.svg">
  <defs
     id="defs2">
    <linearGradient
       inkscape:collect="always"
       id="linearGradient3738">
      <stop
         style="stop-color:#00ffff;stop-opacity:1;"
         offset="0"
         id="stop3734" />
      <stop
         style="stop-color:#008080;stop-opacity:1"
         offset="1"
         id="stop3736" />
    </linearGradient>
    <linearGradient
       inkscape:collect="always"
       xlink:href="#linearGradient3738"
       id="linearGradient3740"
       x1="338.17679"
       y1="539.60028"
       x2="100.52723"
       y2="375.68384"
       gradientUnits="userSpaceOnUse"
       gradientTransform="matrix(0.29005257,0,0,0.22374378,-1.7090573,108.1116)" />
  </defs>
  <sodipodi:namedview
     id="base"
     pagecolor="#ffffff"
     bordercolor="#666666"
     borderopacity="1.0"
     inkscape:pageopacity="0.0"
     inkscape:pageshadow="2"
     inkscape:zoom="0.49497475"
     inkscape:cx="470.78241"
     inkscape:cy="389.44342"
     inkscape:document-units="mm"
     inkscape:current-layer="layer1"
     showgrid="false"
     inkscape:window-width="1366"
     inkscape:window-height="715"
     inkscape:window-x="-8"
     inkscape:window-y="-8"
     inkscape:window-maximized="1" />
  <metadata
     id="metadata5">
    <rdf:RDF>
      <cc:Work
         rdf:about="">
        <dc:format>image/svg+xml</dc:format>
        <dc:type
           rdf:resource="http://purl.org/dc/dcmitype/StillImage" />
        <dc:title></dc:title>
      </cc:Work>
    </rdf:RDF>
  </metadata>
  <g
     inkscape:label="Layer 1"
     inkscape:groupmode="layer"
     id="layer1"
     style="opacity:1"
     transform="translate(0,-87)">
    <path
       style="opacity:1;fill:#008080;stroke-width:0.40398151"
       d="m 266.14077,159.61824 v 39.00457 h 4.02106 v -9.35008 l 2.60942,-2.90779 9.58211,12.25787 h 5.30438 l -11.91346,-15.0654 11.10067,-12.93467 h -5.06909 l -11.61403,14.01256 v -25.01706 z m -40.16787,1.42882 v 4.88811 h 4.5344 v -4.88811 z m -51.99577,0.25068 v 37.32507 h 8.04213 c 2.92312,0 5.27586,-0.23397 7.05825,-0.70189 1.79665,-0.46792 3.42219,-1.2283 4.87661,-2.28111 2.09608,-1.52074 3.77153,-3.65981 5.02633,-6.41721 1.26906,-2.75739 1.90359,-5.8323 1.90359,-9.22473 0,-3.62639 -0.60601,-6.75979 -1.81805,-9.4002 -1.21201,-2.64041 -2.90171,-4.75441 -5.06909,-6.34201 -1.26907,-0.91913 -2.82331,-1.63772 -4.66273,-2.15578 -1.82517,-0.53476 -4.29198,-0.80214 -7.40046,-0.80214 z m -17.5173,1.27843 v 8.04657 h -2.71635 v 3.96062 h 2.71635 v 14.88991 c 0,3.39244 0.63454,5.85737 1.90359,7.39483 1.26907,1.53745 3.12275,2.30618 5.56105,2.30618 0.6987,0 1.49007,-0.0752 2.37414,-0.2256 0.89832,-0.15041 1.72534,-0.34259 2.48108,-0.57655 v -4.23635 h -0.21388 c -0.3137,0.1504 -0.82703,0.34257 -1.53998,0.57654 -0.71295,0.21724 -1.3974,0.32588 -2.05331,0.32588 -1.12647,0 -1.96776,-0.15041 -2.52387,-0.45121 -0.54184,-0.31752 -0.96961,-0.81051 -1.28332,-1.47897 -0.34221,-0.71859 -0.54184,-1.48732 -0.59888,-2.30618 -0.0571,-0.83558 -0.0856,-1.98867 -0.0856,-3.45928 v -12.7592 h 8.29879 v -3.96062 h -8.29879 v -8.04657 z m 21.75225,2.98299 h 3.97829 c 1.96776,0 3.65745,0.16712 5.06911,0.50134 1.41165,0.31752 2.74486,0.89408 3.99968,1.72965 1.72534,1.15308 3.02293,2.73232 3.89273,4.73769 0.8698,2.00538 1.30469,4.47032 1.30469,7.39483 0,2.9078 -0.39925,5.33095 -1.19776,7.26949 -0.78424,1.93853 -1.96775,3.50105 -3.55051,4.68756 -1.26906,0.95256 -2.66644,1.60431 -4.19217,1.95525 -1.51147,0.35094 -3.28671,0.52641 -5.32577,0.52641 h -3.97829 z m -94.024424,4.28649 c -1.311838,0 -2.630805,0.33423 -3.956899,1.00269 -1.326096,0.65175 -2.452564,1.57088 -3.379405,2.7574 -0.998137,1.27007 -1.789514,2.78245 -2.374137,4.53716 -0.570363,1.73799 -0.855546,3.81022 -0.855546,6.21666 0,4.39512 0.834155,7.80426 2.50247,10.22743 1.682573,2.40644 3.949769,3.60967 6.801586,3.60967 1.711091,0 3.115612,-0.27574 4.213563,-0.82722 1.112209,-0.56818 2.274324,-1.42047 3.486346,-2.55685 v 2.55685 c 0,1.13009 -0.106092,2.15236 -0.317619,3.0676 h 3.911981 c 0.282762,-1.47291 0.426703,-3.13695 0.426703,-4.99777 v -24.81653 h -3.764401 l -0.256664,1.20323 c -1.040913,-0.66847 -2.031919,-1.16145 -2.973019,-1.47898 -0.926841,-0.33423 -2.081828,-0.50134 -3.464959,-0.50134 z m 10.03234,30.59139 c -0.438431,2.28377 -1.214204,4.10407 -2.332431,5.45526 -1.839423,2.22262 -4.669852,3.33393 -8.49129,3.33393 -1.269058,0 -2.509599,-0.10866 -3.721623,-0.32588 -1.197763,-0.20053 -2.381266,-0.49298 -3.550513,-0.87735 v -4.8129 h 0.213885 c 0.65592,0.30081 1.696834,0.66846 3.122742,1.10296 1.42591,0.45121 2.851818,0.67681 4.277727,0.67681 1.368872,0 2.502472,-0.19218 3.400795,-0.57654 0.898322,-0.38437 1.597017,-0.91913 2.096086,-1.60431 0.499069,-0.65174 0.855546,-1.43718 1.069433,-2.35631 0.0011,-0.005 0.0021,-0.0109 0.0032,-0.0156 H 18.013884 V 214.476 H 288.68867 V 200.43708 Z M 112.4848,169.84565 c -3.47922,0 -6.28825,1.34527 -8.42713,4.03582 -2.1246,2.69056 -3.18689,6.3253 -3.18689,10.90423 0,4.62909 1.1122,8.20534 3.33661,10.72877 2.22442,2.50671 5.31865,3.76008 9.28267,3.76008 1.55424,0 3.03718,-0.2256 4.44884,-0.67681 1.41165,-0.45121 2.79479,-1.01105 4.14939,-1.67951 v -5.13878 h -0.21388 c -0.6987,0.73531 -1.87507,1.48733 -3.52913,2.25605 -1.63979,0.75202 -3.27245,1.12803 -4.898,1.12803 -1.22627,0 -2.35274,-0.20054 -3.3794,-0.60161 -1.0124,-0.40107 -1.88933,-1.0027 -2.6308,-1.80484 -0.76999,-0.81887 -1.376,-1.86333 -1.81804,-3.13341 -0.44203,-1.28678 -0.66304,-2.79081 -0.66304,-4.51209 h 17.60285 v -2.55686 c 0,-4.06088 -0.87694,-7.19428 -2.63081,-9.4002 -1.73961,-2.20591 -4.22068,-3.30887 -7.44324,-3.30887 z m 28.21161,0 c -1.41165,0 -2.78765,0.34259 -4.12801,1.02775 -1.34034,0.68518 -2.63792,1.63773 -3.89273,2.85767 v -3.10833 h -4.02106 v 28.00007 h 4.02106 v -20.90606 c 1.09796,-0.98597 2.24581,-1.79648 3.44358,-2.43152 1.19776,-0.63503 2.34562,-0.95255 3.44356,-0.95255 1.06944,0 1.93924,0.17548 2.60942,0.52641 0.67017,0.33423 1.1835,0.85229 1.53998,1.55417 0.34222,0.63503 0.5775,1.52075 0.70582,2.65712 0.12834,1.11968 0.1925,2.32289 0.1925,3.60968 v 15.94275 h 4.02107 v -18.17373 c 0,-3.42584 -0.6773,-6.04956 -2.03193,-7.87111 -1.35462,-1.82154 -3.32236,-2.73232 -5.90326,-2.73232 z m 109.59539,0 c -1.41166,0 -2.78767,0.34259 -4.12802,1.02775 -1.34035,0.68518 -2.63792,1.63773 -3.89273,2.85767 v -3.10833 h -4.02107 v 28.00007 h 4.02107 v -20.90606 c 1.09795,-0.98597 2.24581,-1.79648 3.44357,-2.43152 1.19777,-0.63503 2.34563,-0.95255 3.44357,-0.95255 1.06943,0 1.93924,0.17548 2.60941,0.52641 0.67018,0.33423 1.18351,0.85229 1.53999,1.55417 0.34221,0.63503 0.57749,1.52075 0.70582,2.65712 0.12834,1.11968 0.1925,2.32289 0.1925,3.60968 v 15.94275 h 4.02107 v -18.17373 c 0,-3.42584 -0.67731,-6.04956 -2.03193,-7.87111 -1.3546,-1.82154 -3.32237,-2.73232 -5.90325,-2.73232 z m -42.84145,0.77709 v 28.00007 h 4.02107 v -19.8783 c 1.06942,-1.0194 2.18163,-1.84662 3.33662,-2.48165 1.15499,-0.65175 2.35275,-0.97763 3.59329,-0.97763 0.76999,0 1.43304,0.0418 1.98915,0.12534 0.57036,0.0668 1.15499,0.18383 1.75386,0.35094 h 0.21389 v -4.83796 c -0.6274,-0.11703 -1.09794,-0.19219 -1.41165,-0.22561 -0.3137,-0.0501 -0.8199,-0.0752 -1.51859,-0.0752 -1.26906,0 -2.51674,0.31751 -3.74302,0.95255 -1.21201,0.61832 -2.61653,1.67951 -4.21355,3.18353 v -4.13608 z m 18.77922,0 v 28.00007 h 4.02106 v -28.00007 z m -113.95866,3.10833 c 2.13887,0 3.72875,0.67682 4.76967,2.03044 1.05517,1.35364 1.58989,3.26709 1.60415,5.7404 H 104.956 c 0.17111,-2.20592 0.8912,-4.05254 2.16025,-5.53986 1.28332,-1.48732 3.00154,-2.23098 5.15466,-2.23098 z m -27.377431,0.35094 c 0.912584,0 1.825165,0.12534 2.737746,0.376 0.926842,0.23397 1.924977,0.63504 2.994409,1.20323 v 15.26593 c -0.983877,0.88571 -2.067567,1.59595 -3.251072,2.13071 -1.169246,0.51806 -2.33849,0.77709 -3.507737,0.77709 -2.181641,0 -3.743011,-0.81051 -4.684111,-2.43153 -0.941099,-1.621 -1.41165,-4.00239 -1.41165,-7.14414 0,-3.30888 0.634531,-5.8323 1.903588,-7.5703 1.26906,-1.73799 3.00867,-2.60699 5.218827,-2.60699 z"
       id="rect3754"
       inkscape:connector-curvature="0" />
    <path
       style="fill:#00ffff;stroke-width:0.5146724"
       d="m 30.102328,212.95854 c -0.131062,-0.31078 -1.810641,-12.60406 -3.732399,-27.31841 -1.921755,-14.71437 -3.667693,-26.97005 -3.879858,-27.23486 -0.212167,-0.26482 -1.293136,-0.48148 -2.402155,-0.48148 h -2.016398 v -2.93819 -2.93821 h 14.548268 14.54827 l 1.95087,-6.66743 c 1.072981,-3.66712 2.185886,-7.32857 2.473121,-8.13657 l 0.522252,-1.4691 h 13.157336 13.157336 v 2.9382 2.9382 h -9.961907 c -5.479053,0 -9.961912,0.0512 -9.961912,0.1139 0,0.0627 -0.527394,2.24895 -1.171989,4.85843 -0.644595,2.60951 -1.17199,4.8975 -1.17199,5.08446 0,0.18695 5.010256,0.33991 11.1339,0.33991 h 11.133898 v 2.93821 2.93819 h -2.292468 c -2.199996,0 -2.305729,0.0684 -2.621083,1.69511 -0.180737,0.93232 -1.797233,12.98459 -3.592215,26.78284 -1.794981,13.79822 -3.389345,25.54538 -3.543026,26.10477 l -0.279423,1.01706 H 48.220689 c -13.786298,0 -17.934624,-0.12937 -18.118361,-0.56503 z"
       id="path3726"
       inkscape:connector-curvature="0" />
    <path
       style="fill:#008080;stroke-width:0.5146724"
       d="m 34.6732,213.18868 -4.20113,-0.15528 -0.342541,-1.67603 c -0.188398,-0.92182 -1.663634,-11.54163 -3.278304,-23.59955 -3.305437,-24.68413 -3.923124,-28.80582 -4.407506,-29.4104 -0.186672,-0.233 -1.246784,-0.42363 -2.355803,-0.42363 h -2.016398 v -2.93819 -2.93821 h 14.610378 c 13.415257,0 14.633727,-0.0647 14.895793,-0.79106 0.156976,-0.43506 1.276921,-4.09651 2.488764,-8.13654 l 2.203352,-7.3455 H 65.34939 78.428971 v 2.92753 2.92752 l -10.096756,0.12369 -10.096757,0.12367 -1.002085,4.06828 c -0.551143,2.23755 -1.017858,4.52595 -1.037141,5.08536 l -0.03505,1.01705 h 11.133896 11.133897 v 2.93821 2.93819 h -2.332814 c -1.940953,0 -2.382475,0.17085 -2.628454,1.01707 -0.162599,0.55938 -1.756706,12.10313 -3.542455,25.65275 -1.785753,13.54962 -3.405745,25.60189 -3.599985,26.78282 l -0.353169,2.14714 -13.548881,-0.0898 c -7.451884,-0.0494 -15.439391,-0.15971 -17.750013,-0.24508 z"
       id="path3728"
       inkscape:connector-curvature="0" />
    <path
       style="fill:#0000ff;stroke-width:0.5146724"
       d="m 30.859391,213.15773 c -0.765472,-0.1089 -0.913277,-0.47131 -0.667912,-1.63766 0.183125,-0.87049 0.04209,-1.62797 -0.336751,-1.80858 -0.408029,-0.19452 -0.513767,-0.97687 -0.282688,-2.0916 0.259677,-1.25269 0.157884,-1.78083 -0.343235,-1.78083 -0.50537,0 -0.598369,-0.52064 -0.320017,-1.79155 0.215808,-0.98534 0.173062,-2.05326 -0.09499,-2.37316 -0.268053,-0.31989 -0.54954,-1.39527 -0.625525,-2.38976 -0.165746,-2.16918 -0.746609,-6.78894 -1.61983,-12.88285 -0.322347,-2.24958 -0.648688,-4.72373 -1.162646,-8.81461 -0.18741,-1.4917 -0.453241,-3.42414 -0.590737,-4.29429 -0.291739,-1.84631 -0.920503,-7.15153 -0.964327,-8.13655 -0.101214,-2.27511 -1.264819,-6.58532 -1.856062,-6.87528 -0.385099,-0.18885 -1.425348,-0.34649 -2.311665,-0.35029 -1.591783,-0.006 -1.611486,-0.0428 -1.611486,-2.94512 v -2.93821 h 13.809401 c 13.739307,0 16.361245,-0.25736 15.721559,-1.54327 -0.171118,-0.34399 -0.02515,-0.76176 0.324379,-0.9284 0.349527,-0.16664 0.476651,-0.50124 0.282499,-0.74357 -0.194152,-0.24234 -0.06206,-0.71103 0.293548,-1.04154 0.355603,-0.33053 0.481942,-0.93187 0.28075,-1.3363 -0.209853,-0.42186 -0.07241,-0.73535 0.322376,-0.73535 0.421507,0 0.544037,-0.35032 0.316205,-0.90406 -0.229008,-0.55659 -0.105311,-0.90406 0.321853,-0.90406 0.405213,0 0.566403,-0.37588 0.387498,-0.90361 -0.168479,-0.49698 -0.04941,-1.02609 0.264605,-1.1758 0.314011,-0.1497 0.432617,-0.55022 0.263576,-0.89003 -0.169046,-0.33983 -0.04445,-0.7432 0.276883,-0.89638 0.321332,-0.1532 0.423895,-0.66825 0.227916,-1.14455 -0.20518,-0.49869 -0.08012,-0.86602 0.294848,-0.86602 0.358147,0 0.60837,-0.25428 0.556056,-0.56504 -0.284818,-1.69192 -0.259897,-1.69512 13.228622,-1.69512 h 13.184879 v 2.9382 2.9382 l -8.057426,0.004 c -8.704426,0.004 -12.622042,0.32163 -12.097306,0.97655 0.182495,0.2278 0.02272,0.70146 -0.355079,1.05261 -0.377791,0.35115 -0.509641,0.85967 -0.293,1.13007 0.216642,0.27039 0.0857,0.77808 -0.290964,1.12818 -0.376671,0.35011 -0.520493,1.03603 -0.319609,1.52427 0.200888,0.48824 0.09082,1.01855 -0.244581,1.17845 -0.335407,0.15991 -0.609833,0.99068 -0.609833,1.84616 v 1.55543 h 11.133899 11.133898 v 2.9382 2.93821 h -2.016393 c -2.09557,0 -2.856066,0.49885 -3.100978,2.03413 -0.405071,2.53925 -0.832041,6.07534 -0.927881,7.68452 -0.05923,0.99447 -0.331597,2.0756 -0.605268,2.4025 -0.273666,0.32689 -0.323893,1.30853 -0.111612,2.1814 0.237452,0.97636 0.121504,1.83286 -0.301336,2.22588 -0.427798,0.39763 -0.538424,1.25099 -0.292995,2.26015 0.245427,1.00916 0.134802,1.86251 -0.292997,2.26015 -0.41751,0.38806 -0.53916,1.24798 -0.309905,2.19065 0.234339,0.96358 0.127172,1.67111 -0.282722,1.86652 -0.424454,0.20234 -0.525439,1.00752 -0.282865,2.25531 0.245201,1.26132 0.142638,2.05248 -0.292997,2.26017 -0.435635,0.20768 -0.538199,0.99883 -0.292997,2.26015 0.246962,1.27036 0.143359,2.05212 -0.299977,2.26346 -0.429995,0.20501 -0.546761,0.95228 -0.319841,2.04695 0.221895,1.07045 0.108562,1.84269 -0.298933,2.03697 -0.413388,0.19708 -0.527752,1.0365 -0.308972,2.26776 0.211208,1.18867 0.101427,2.07212 -0.280084,2.254 -0.388388,0.18516 -0.483704,1.03849 -0.250178,2.23974 0.232878,1.19792 0.137983,2.05468 -0.247957,2.23868 -0.34387,0.16395 -0.627605,1.04648 -0.630522,1.9612 -0.0048,1.46501 -0.221609,4.14824 -0.473442,5.85605 -0.06724,0.45603 -3.669875,0.55057 -17.225379,0.45203 -9.427189,-0.0684 -17.582693,-0.18756 -18.123345,-0.26446 z"
       id="path3730"
       inkscape:connector-curvature="0" />
    <path
       style="fill:url(#linearGradient3740);fill-opacity:1;stroke-width:0.5146724"
       d="m 41.347139,214.61915 c -8.260361,-0.15123 -9.229952,-0.25082 -9.234508,-0.94854 -0.0029,-0.42878 -0.40592,-3.32226 -0.895819,-6.42996 -0.489898,-3.10772 -2.066563,-14.48829 -3.503698,-25.29018 -1.437135,-10.80185 -2.895214,-20.29944 -3.240174,-21.10575 -0.510207,-1.19251 -0.976105,-1.49203 -2.497654,-1.60566 -1.862925,-0.13913 -1.871155,-0.15104 -2.044914,-2.96488 l -0.174462,-2.82517 h 13.467692 c 7.407232,0 14.093246,-0.18348 14.857806,-0.40772 1.23946,-0.36351 1.634841,-1.21569 3.648178,-7.86316 l 2.258063,-7.45548 2.103419,-0.2684 c 1.156881,-0.14763 7.04775,-0.27065 13.09082,-0.27339 l 10.9874,-0.004 v 2.93818 2.9382 h -9.263915 c -6.490335,0 -9.56151,0.16917 -10.257909,0.56504 -0.953762,0.54217 -2.745974,6.24738 -2.745974,8.74137 v 1.0903 h 11.1339 11.133898 v 2.93821 2.93818 h -1.979233 c -1.088573,0 -2.251844,0.25427 -2.585044,0.56505 -0.3332,0.31077 -0.864687,2.49746 -1.181076,4.85934 -3.78552,28.25889 -6.723169,49.52428 -6.857105,49.63796 -0.302594,0.25685 -16.85224,0.40292 -26.219691,0.23141 z"
       id="path3732"
       inkscape:connector-curvature="0" />
    <text
       xml:space="preserve"
       style="font-style:normal;font-weight:normal;font-size:58.20833206px;line-height:1.25;font-family:sans-serif;letter-spacing:0px;word-spacing:0px;fill:#000000;fill-opacity:1;stroke:none;stroke-width:0.26458332"
       x="28.881208"
       y="201.34444"
       id="text3744"><tspan
         sodipodi:role="line"
         x="28.881208"
         y="201.34444"
         style="font-style:normal;font-variant:normal;font-weight:normal;font-stretch:normal;font-size:58.20833206px;font-family:'MV Boli';-inkscape-font-specification:'MV Boli';fill:#ffffff;stroke-width:0.26458332"
         id="tspan3750">A</tspan></text>
  </g>
</svg>
